<svg width="23" height="22" viewBox="0 0 23 22" fill="none" xmlns="http://www.w3.org/2000/svg">
<g clip-path="url(#clip0_24_862)">
<path d="M22.3278 11.336C22.3278 5.41077 17.5438 0.595032 11.6341 0.595032C5.74789 0.595032 0.963867 5.41077 0.963867 11.336C0.963867 16.6947 4.8802 21.1563 9.96908 21.959V14.4521H7.24876V11.336H9.96908V8.97536C9.96908 6.28421 11.5638 4.797 14.0027 4.797C15.1752 4.797 16.3947 5.03306 16.3947 5.03306V7.65339H15.058C13.7213 7.65339 13.2991 8.47962 13.2991 9.32946V11.336H16.254L15.7849 14.4521H13.2991V21.959C18.4115 21.1563 22.3278 16.7183 22.3278 11.336Z" fill="#C4D600"/>
</g>
<defs>
<clipPath id="clip0_24_862">
<rect width="21.3639" height="21.3639" fill="white" transform="translate(0.963867 0.595032)"/>
</clipPath>
</defs>
</svg>
