<svg width="23" height="22" viewBox="0 0 23 22" fill="none" xmlns="http://www.w3.org/2000/svg">
<g clip-path="url(#clip0_24_853)">
<path fill-rule="evenodd" clip-rule="evenodd" d="M22.0539 17.2777C22.0539 19.8636 19.9728 21.9589 17.4055 21.9589H5.33833C2.77106 21.9589 0.689941 19.8636 0.689941 17.2777V5.27615C0.689941 2.69032 2.77106 0.594971 5.33833 0.594971H17.4055C19.9728 0.594971 22.0539 2.69032 22.0539 5.27615V17.2777Z" fill="#C4D600"/>
<path fill-rule="evenodd" clip-rule="evenodd" d="M14.589 19.3238H8.09592C5.6119 19.3238 3.5774 17.2851 3.5774 14.7961V7.85939C3.57407 5.37033 5.60857 3.3317 8.09259 3.3317H14.5857C17.0697 3.3317 19.1042 5.37033 19.1042 7.85939V14.7927C19.1075 17.2851 17.073 19.3238 14.589 19.3238ZM14.589 18.126C15.4714 18.126 16.3038 17.779 16.9365 17.145C17.5658 16.5144 17.9155 15.6769 17.9155 14.7927V7.85939C17.9155 6.97521 17.5692 6.14107 16.9365 5.50713C16.3072 4.87652 15.4714 4.52618 14.589 4.52618H8.09592C7.21353 4.52618 6.38108 4.87318 5.74842 5.50713C5.11909 6.13773 4.76946 6.97521 4.76946 7.85939V14.7927C4.76946 15.6769 5.11576 16.5111 5.74842 17.145C6.37775 17.7756 7.21353 18.126 8.09592 18.126H14.589Z" fill="#F8F8F8"/>
<path fill-rule="evenodd" clip-rule="evenodd" d="M15.642 11.266C15.642 13.6316 13.7273 15.5501 11.3665 15.5501C9.00569 15.5501 7.09106 13.6316 7.09106 11.266C7.09106 8.90039 9.00569 6.98187 11.3665 6.98187C13.7273 6.98187 15.642 8.90039 15.642 11.266ZM11.3432 8.4633C9.79818 8.4633 8.54285 9.72118 8.54285 11.2693C8.54285 12.8175 9.79818 14.0754 11.3432 14.0754C12.8882 14.0754 14.1436 12.8175 14.1436 11.2693C14.1436 9.71785 12.8916 8.4633 11.3432 8.4633Z" fill="#F8F8F8"/>
<path d="M16.7025 7.11677C16.8153 6.56812 16.4629 6.03171 15.9153 5.91866C15.3678 5.80561 14.8325 6.15874 14.7196 6.70739C14.6068 7.25604 14.9592 7.79245 15.5068 7.9055C16.0543 8.01855 16.5896 7.66542 16.7025 7.11677Z" fill="#F8F8F8"/>
</g>
<defs>
<clipPath id="clip0_24_853">
<rect width="21.3639" height="21.3639" fill="white" transform="translate(0.750854 0.595032)"/>
</clipPath>
</defs>
</svg>
