<svg width="23" height="22" viewBox="0 0 23 22" fill="none" xmlns="http://www.w3.org/2000/svg">
<g clip-path="url(#clip0_24_864)">
<path d="M18.9542 18.2944H15.7886V13.337C15.7886 12.1549 15.7675 10.6331 14.1423 10.6331C12.4935 10.6331 12.2412 11.921 12.2412 13.2509V18.294H9.07576V8.09968H12.1146V9.49282H12.1572C12.776 8.43489 13.9307 7.80067 15.1556 7.84616C18.3639 7.84616 18.9555 9.95647 18.9555 12.7019L18.9542 18.2944ZM5.50399 6.70615C4.49623 6.70615 3.66659 5.87699 3.66659 4.86924C3.66659 3.86148 4.49585 3.03223 5.5036 3.03223C6.51126 3.03223 7.34042 3.86129 7.34061 4.86886C7.34061 5.87642 6.51155 6.70606 5.50399 6.70615ZM7.08672 18.2944H3.91791V8.09968H7.08672V18.2944ZM20.5322 0.0925733H2.32716C1.47258 0.082922 0.761148 0.777819 0.750732 1.6324V19.9131C0.760766 20.7681 1.4721 21.4638 2.32716 21.4546H20.5322C21.3894 21.4654 22.1032 20.7698 22.1147 19.9131V1.63115C22.1032 0.774761 21.3884 0.0812975 20.5322 0.0925733Z" fill="#C4D600"/>
</g>
<defs>
<clipPath id="clip0_24_864">
<rect width="21.3639" height="21.3639" fill="white" transform="translate(0.750854 0.0917664)"/>
</clipPath>
</defs>
</svg>
