<svg width="23" height="22" viewBox="0 0 23 22" fill="none" xmlns="http://www.w3.org/2000/svg">
<g clip-path="url(#clip0_24_868)">
<path fill-rule="evenodd" clip-rule="evenodd" d="M5.54272 10.6953C8.65673 9.33413 10.7332 8.43677 11.7722 8.00321C14.7387 6.7653 15.3551 6.55027 15.7569 6.54317C15.8452 6.5416 16.0428 6.56358 16.1708 6.66776C16.2789 6.75574 16.3086 6.87458 16.3228 6.95799C16.3371 7.0414 16.3548 7.23141 16.3407 7.37988C16.1799 9.07448 15.4844 13.1868 15.1305 15.0848C14.9807 15.8879 14.6859 16.1572 14.4005 16.1835C13.7801 16.2408 13.3091 15.7722 12.7083 15.3771C11.7681 14.7588 11.237 14.3739 10.3244 13.7706C9.26979 13.0733 9.95347 12.6901 10.5545 12.0638C10.7118 11.8999 13.445 9.40572 13.4979 9.17946C13.5045 9.15116 13.5106 9.04568 13.4482 8.98998C13.3857 8.93429 13.2935 8.95333 13.227 8.96848C13.1327 8.98995 11.6308 9.9859 8.72127 11.9563C8.29496 12.25 7.90882 12.3931 7.56285 12.3856C7.18145 12.3774 6.44779 12.1693 5.90239 11.9914C5.23343 11.7732 4.70175 11.6579 4.74805 11.2874C4.77216 11.0944 5.03705 10.897 5.54272 10.6953Z" fill="#F8F8F8"/>
<g clip-path="url(#clip1_24_868)">
<path fill-rule="evenodd" clip-rule="evenodd" d="M20.2837 0.0916748H2.89001C1.79689 0.0916748 0.904907 1.00002 0.904907 2.11319V19.4252C0.904907 20.5384 1.79689 21.4467 2.89001 21.4556H20.2837C21.3769 21.4556 22.2688 20.5473 22.2688 19.4341V2.11319C22.2688 1.00002 21.3769 0.0916748 20.2837 0.0916748ZM13.3919 7.15348C13.7329 6.17389 13.217 5.09634 12.2288 4.74903C11.2406 4.40172 10.1563 4.91823 9.80646 5.90673C9.46541 6.88631 9.98136 7.96386 10.9695 8.31117C11.9577 8.64957 13.0421 8.13306 13.3919 7.15348ZM15.3245 11.1609C15.001 11.1787 14.6949 11.339 14.4151 11.5082C13.6717 11.9446 12.8235 12.1672 11.9665 12.2741C10.576 12.372 9.65779 12.0692 8.59965 11.4726C8.24111 11.2767 7.84759 11.1876 7.44532 11.2856C7.08678 11.3746 6.85941 11.5438 6.702 11.7843C6.28224 12.4076 6.36969 13.1913 6.99933 13.6544C7.71384 14.1741 8.75103 14.5085 9.61998 14.7886C9.64438 14.7965 9.66865 14.8043 9.69277 14.8121C9.37544 15.1756 8.88554 15.6626 8.43481 16.1106C8.18995 16.3539 7.95666 16.5858 7.76888 16.7802C7.53277 17.0117 7.29666 17.2432 7.08678 17.5015C6.71949 17.9913 6.77196 18.6948 7.18297 19.1312C7.7339 19.7189 8.59091 19.7724 9.15933 19.1935C9.59657 18.7649 10.0236 18.3294 10.451 17.8935C10.7074 17.6319 10.9641 17.3701 11.2231 17.1097C11.2662 17.0658 11.3141 17.0161 11.3626 16.9657C11.4617 16.8628 11.5637 16.7569 11.6342 16.6911C12.4299 17.4481 13.217 18.2139 13.9953 18.9887C14.1614 19.149 14.3101 19.2737 14.4675 19.3627C15.0709 19.7011 15.8405 19.5497 16.2165 18.962C16.5663 18.4098 16.5488 17.7241 16.0678 17.2521C15.6337 16.8207 15.1933 16.3924 14.7522 15.9635C14.4559 15.6753 14.1593 15.3869 13.8641 15.097C13.8528 15.0864 13.8413 15.0755 13.8296 15.0644C13.7144 14.9553 13.5801 14.8281 13.4531 14.723C14.5375 14.4826 15.0797 14.2154 16.0241 13.6633C16.1291 13.6009 16.234 13.5208 16.3127 13.4407C16.8461 12.9509 16.8112 12.087 16.3302 11.5705C16.1028 11.3301 15.6656 11.1431 15.3245 11.1609ZM7.27917 5.01619C8.11868 2.63846 10.7334 1.39171 13.1208 2.22882C15.5082 3.06592 16.7587 5.66628 15.9192 8.0351C15.0797 10.4128 12.4649 11.6596 10.0776 10.8225C7.69018 9.99428 6.43965 7.39392 7.27917 5.01619Z" fill="#C4D600"/>
</g>
</g>
<defs>
<clipPath id="clip0_24_868">
<rect width="21.3639" height="21.3639" fill="white" transform="translate(0.931152 0.0917664)"/>
</clipPath>
<clipPath id="clip1_24_868">
<rect width="21.3639" height="21.3639" fill="white" transform="translate(0.900146 0.0918274)"/>
</clipPath>
</defs>
</svg>
