<svg width="22" height="22" viewBox="0 0 22 22" fill="none" xmlns="http://www.w3.org/2000/svg">
<g clip-path="url(#clip0_24_877)">
<g clip-path="url(#clip1_24_877)">
<circle cx="11.2197" cy="10.7734" r="10.5958" fill="white"/>
<path fill-rule="evenodd" clip-rule="evenodd" d="M17.2365 11.1826C18.7917 11.0189 20.347 10.978 21.9022 10.8961C21.8613 13.8838 20.5107 16.8715 18.2188 18.836C16.3361 20.514 13.8396 21.4144 11.343 21.4553C11.4249 19.5318 11.4249 17.6082 11.7932 15.7255C12.0388 14.4159 12.7345 13.1881 13.7986 12.3695C14.7809 11.6328 16.0496 11.3463 17.2365 11.1826Z" fill="#C4D600"/>
<path fill-rule="evenodd" clip-rule="evenodd" d="M0.538452 10.8961C2.38017 10.978 4.26282 10.978 6.10453 11.3054C7.33235 11.551 8.51923 12.083 9.3787 13.0244C10.361 14.1294 10.7293 15.6028 10.893 17.0352C11.0567 18.5086 11.0976 19.982 11.1386 21.4553C8.15089 21.4144 5.16321 20.0638 3.19871 17.7719C1.5207 15.9302 0.579379 13.4336 0.538452 10.8961Z" fill="#C4D600"/>
<path fill-rule="evenodd" clip-rule="evenodd" d="M11.343 0.0916138C14.4125 0.132541 17.4002 1.52406 19.3647 3.89783C20.9609 5.78048 21.8613 8.2361 21.9022 10.6917C20.1014 10.6099 18.3006 10.6099 16.4998 10.3234C15.2311 10.1187 14.0033 9.5867 13.1438 8.60445C12.2434 7.66312 11.8341 6.39438 11.6704 5.12564C11.4249 3.44763 11.3839 1.76962 11.343 0.0916138Z" fill="#C4D600"/>
<path fill-rule="evenodd" clip-rule="evenodd" d="M5.12195 2.01519C6.84089 0.787374 8.9691 0.132541 11.0973 0.0916138C11.0155 2.13797 11.0564 4.22525 10.5653 6.23068C10.1969 7.66312 9.25559 8.97279 7.90499 9.66855C6.63625 10.3234 5.20381 10.4462 3.77136 10.5689C2.66633 10.6508 1.60222 10.6917 0.497192 10.6917C0.579047 7.25385 2.33891 3.93876 5.12195 2.01519Z" fill="#C4D600"/>
</g>
</g>
<defs>
<clipPath id="clip0_24_877">
<rect width="21.3639" height="21.3639" fill="white" transform="translate(0.53772 0.0917664)"/>
</clipPath>
<clipPath id="clip1_24_877">
<rect x="0.53772" y="0.0917664" width="21.3639" height="21.3639" fill="white"/>
</clipPath>
</defs>
</svg>
