<svg width="23" height="22" viewBox="0 0 23 22" fill="none" xmlns="http://www.w3.org/2000/svg">
<g clip-path="url(#clip0_24_830)">
<path d="M11.6131 22.0287C17.5126 22.0287 22.2951 17.2306 22.2951 11.3118C22.2951 5.393 17.5126 0.594879 11.6131 0.594879C5.71363 0.594879 0.931152 5.393 0.931152 11.3118C0.931152 17.2306 5.71363 22.0287 11.6131 22.0287Z" fill="#C4D600"/>
<path fill-rule="evenodd" clip-rule="evenodd" d="M5.76611 11.1987C8.88012 9.83758 10.9566 8.94022 11.9956 8.50666C14.9621 7.26875 15.5785 7.05372 15.9803 7.04662C16.0686 7.04505 16.2662 7.06702 16.3942 7.17121C16.5023 7.25919 16.532 7.37803 16.5462 7.46144C16.5605 7.54485 16.5782 7.73486 16.5641 7.88333C16.4033 9.57793 15.7077 13.6903 15.3539 15.5882C15.2041 16.3913 14.9093 16.6606 14.6239 16.687C14.0035 16.7442 13.5325 16.2757 12.9317 15.8806C11.9915 15.2623 11.4604 14.8774 10.5478 14.274C9.49318 13.5768 10.1769 13.1935 10.7779 12.5672C10.9352 12.4033 13.6683 9.90916 13.7212 9.68291C13.7279 9.65461 13.734 9.54913 13.6715 9.49343C13.6091 9.43774 13.5169 9.45678 13.4504 9.47193C13.3561 9.4934 11.8542 10.4894 8.94466 12.4598C8.51835 12.7535 8.13221 12.8966 7.78624 12.8891C7.40484 12.8808 6.67118 12.6727 6.12578 12.4949C5.45682 12.2767 4.92514 12.1613 4.97144 11.7908C4.99555 11.5979 5.26044 11.4005 5.76611 11.1987Z" fill="#F8F8F8"/>
</g>
<defs>
<clipPath id="clip0_24_830">
<rect width="21.3639" height="21.3639" fill="white" transform="translate(0.931152 0.594879)"/>
</clipPath>
</defs>
</svg>
