<svg width="22" height="22" viewBox="0 0 22 22" fill="none" xmlns="http://www.w3.org/2000/svg">
<g clip-path="url(#clip0_24_886)">
<g clip-path="url(#clip1_24_886)">
<path d="M13.208 17.4107H13.3854C12.7352 17.4107 12.2082 17.9336 12.2082 18.5783C12.2082 19.2231 12.7352 19.7458 13.3854 19.7458H13.208C12.558 19.7458 12.0309 19.2231 12.0309 18.5783C12.0309 17.9336 12.558 17.4107 13.208 17.4107Z" fill="#98A4AE"/>
<path d="M13.3944 19.1459C13.7105 19.1459 13.9668 18.8917 13.9668 18.5782C13.9668 18.2647 13.7105 18.0105 13.3944 18.0105C13.0782 18.0105 12.8219 18.2647 12.8219 18.5782C12.8219 18.8917 13.0782 19.1459 13.3944 19.1459Z" fill="#98A4AE"/>
<path fill-rule="evenodd" clip-rule="evenodd" d="M19.3918 0.0914001H2.3007C1.12073 0.0914001 0.164307 1.04782 0.164307 2.22779V19.3189C0.164307 20.4989 1.12073 21.4553 2.3007 21.4553H19.3918C20.5718 21.4553 21.5282 20.4989 21.5282 19.3189V2.22779C21.5282 1.04782 20.5718 0.0914001 19.3918 0.0914001ZM17.8606 7.20283V6.61651C17.1397 6.61759 16.433 6.4159 15.8214 6.03433C14.9106 5.4663 14.2544 4.52917 14.0621 3.43229C14.0437 3.32748 14.0296 3.22195 14.0198 3.11599V2.7617H11.2477V13.7641C11.2432 15.0467 10.2018 16.0852 8.91741 16.0852C8.54028 16.0852 8.18426 15.9958 7.86895 15.8367C7.10855 15.4532 6.58711 14.6657 6.58711 13.7562C6.58711 12.4699 7.63029 11.4271 8.91736 11.4271C9.16394 11.4271 9.40161 11.4655 9.62455 11.5362L9.62469 9.34427V8.72006C9.39305 8.68839 9.15952 8.67256 8.92572 8.67269C6.11201 8.67269 3.83121 10.9523 3.83121 13.7641C3.83121 15.5268 4.72731 17.0802 6.08909 17.9941L6.08961 17.9947C6.90015 18.5387 7.87587 18.8559 8.92557 18.8559C11.739 18.8559 14.0198 16.5762 14.0198 13.7642V8.14273C15.1025 8.91608 16.4285 9.37115 17.8605 9.37115L17.8606 7.20283ZM16.9045 6.8619C17.2036 7.01561 17.5233 7.13037 17.8559 7.20183C17.5205 7.13002 17.2013 7.01463 16.9045 6.8619Z" fill="#C4D600"/>
</g>
</g>
<defs>
<clipPath id="clip0_24_886">
<rect width="21.3639" height="21.3639" fill="white" transform="translate(0.144287 0.0917664)"/>
</clipPath>
<clipPath id="clip1_24_886">
<rect width="21.3639" height="21.3639" fill="white" transform="translate(0.164062 0.0915833)"/>
</clipPath>
</defs>
</svg>
