<svg width="22" height="22" viewBox="0 0 22 22" fill="none" xmlns="http://www.w3.org/2000/svg">
<path d="M21.9017 16.5375C21.9017 16.6546 21.898 16.907 21.8907 17.1045C21.8724 17.5837 21.8358 18.202 21.7773 18.4837C21.6895 18.908 21.5614 19.3068 21.3895 19.6397C21.1883 20.0347 20.9322 20.3859 20.6249 20.6896C20.3213 20.9932 19.9701 21.2493 19.575 21.4505C19.2421 21.6224 18.8397 21.7504 18.4117 21.8382C18.1337 21.8931 17.5191 21.9334 17.0436 21.948C16.846 21.9553 16.5936 21.959 16.4765 21.959H5.95553C5.83846 21.959 5.58605 21.9553 5.3885 21.948C4.90928 21.9297 4.29104 21.8931 4.00936 21.8346C3.58501 21.7468 3.18626 21.6188 2.85337 21.4468C2.45828 21.2456 2.10709 20.9895 1.80346 20.6823C1.49983 20.3786 1.24375 20.0274 1.04255 19.6323C0.870617 19.2994 0.742579 18.897 0.654782 18.469C0.599909 18.191 0.559669 17.5764 0.545036 17.1009C0.541378 16.907 0.53772 16.6546 0.53772 16.5375V6.0165C0.53772 5.89943 0.541378 5.64702 0.548694 5.44947C0.566985 4.97025 0.603567 4.35201 0.662099 4.07033C0.749896 3.64598 0.877933 3.24723 1.04987 2.91434C1.25107 2.51925 1.50714 2.16806 1.81078 1.86443C2.11441 1.5608 2.4656 1.30472 2.86068 1.10352C3.19358 0.931587 3.59598 0.80355 4.02399 0.715753C4.30202 0.660879 4.91659 0.620639 5.39216 0.606006C5.5897 0.59869 5.84212 0.595032 5.95918 0.595032H16.4802C16.5973 0.595032 16.8497 0.59869 17.0472 0.606006C17.5264 0.624297 18.1447 0.660879 18.4264 0.719411C18.8507 0.807208 19.2495 0.935245 19.5823 1.10718C19.9774 1.30838 20.3286 1.56446 20.6323 1.87175C20.9359 2.17538 21.192 2.52657 21.3932 2.92165C21.5651 3.25455 21.6931 3.65695 21.7809 4.08496C21.8358 4.36299 21.876 4.97756 21.8907 5.45313C21.898 5.65068 21.9017 5.90309 21.9017 6.02015V16.5375Z" fill="#C4D600"/>
<g clip-path="url(#clip0_24_834)">
<path d="M17.3851 5.21818C16.972 4.83717 15.3027 3.62583 11.5843 3.60937C11.5843 3.60937 7.19938 3.34506 5.06181 5.30495C3.87191 6.4946 3.45333 8.23531 3.40917 10.3934C3.36502 12.5516 3.30789 16.596 7.20811 17.6927H7.21185L7.20936 19.366C7.20936 19.366 7.18441 20.0435 7.63069 20.1817C8.17051 20.3492 8.48731 19.8343 9.00269 19.2793C9.28557 18.9746 9.67621 18.527 9.97057 18.1849C12.638 18.4093 14.6895 17.8964 14.9225 17.8206C15.4611 17.646 18.5086 17.2558 19.0043 13.2116C19.5159 9.04321 18.7568 6.40658 17.3851 5.21818Z" fill="#F8F8F8"/>
<path d="M16.5173 6.05972C16.1681 5.74255 14.6606 4.79577 11.5152 4.78205C11.5152 4.78205 7.79064 4.53744 5.9826 6.17443C4.9763 7.16759 4.63729 8.64449 4.60012 10.4468C4.56295 12.2491 4.37037 15.6921 7.66841 16.608C7.66841 16.608 7.65544 19.1641 7.65394 19.3887C7.65394 19.5458 7.67888 19.6533 7.76869 19.6755C7.8333 19.6912 7.93009 19.6578 8.01241 19.5757C8.53975 19.0464 10.2281 17.0104 10.2281 17.0104C12.4934 17.1583 14.2957 16.7112 14.4895 16.6479C14.9465 16.501 17.4183 16.2888 17.8367 12.9111C18.269 9.42944 17.6778 7.05289 16.5173 6.05972Z" fill="#C4D600"/>
<path d="M13.1154 10.2989C13.0745 9.47451 12.6556 9.04156 11.8586 9" stroke="#F8F8F8" stroke-width="0.483992" stroke-linecap="round" stroke-linejoin="round"/>
<path d="M14.1942 10.6606C14.2109 9.89255 13.9833 9.25089 13.5115 8.73557C13.0375 8.21842 12.3815 7.93366 11.5396 7.87207" stroke="#F8F8F8" stroke-width="0.483992" stroke-linecap="round" stroke-linejoin="round"/>
<path d="M15.2983 11.0923C15.2882 9.75959 14.8898 8.71 14.1032 7.9435C13.3166 7.17699 12.3383 6.78967 11.1683 6.78152" stroke="#F8F8F8" stroke-width="0.483992" stroke-linecap="round" stroke-linejoin="round"/>
<path d="M11.9011 13.1143C11.9011 13.1143 12.1967 13.1392 12.3558 12.9432L12.6662 12.553C12.8158 12.3595 13.177 12.2361 13.5308 12.4331C13.7958 12.5842 14.0532 12.7484 14.3018 12.9253C14.5366 13.0978 15.0173 13.4988 15.0188 13.4988C15.2478 13.692 15.3006 13.9758 15.1447 14.275C15.1447 14.2768 15.1435 14.2797 15.1435 14.2812C14.9718 14.5788 14.7538 14.8471 14.4976 15.0762C14.4947 15.0777 14.4947 15.0792 14.4919 15.0807C14.2694 15.2665 14.0508 15.3721 13.8361 15.3976C13.8045 15.4031 13.7724 15.4051 13.7403 15.4036C13.6456 15.4045 13.5514 15.39 13.4614 15.3607L13.4544 15.3505C13.1237 15.2572 12.5714 15.0238 11.6516 14.5166C11.1194 14.2266 10.6127 13.892 10.1369 13.5165C9.89848 13.3284 9.67102 13.1267 9.45568 12.9126L9.43273 12.8896L9.40978 12.8667L9.38683 12.8437C9.3791 12.8363 9.37161 12.8285 9.36388 12.8208C9.14962 12.6055 8.9479 12.3782 8.7597 12.1398C8.38407 11.6643 8.04936 11.1579 7.75914 10.626C7.25175 9.70642 7.01826 9.15485 6.92497 8.82372L6.91474 8.81674C6.8855 8.72674 6.87109 8.63258 6.87208 8.53796C6.87034 8.50593 6.87226 8.47381 6.87782 8.44221C6.9046 8.22794 7.01045 8.00926 7.19538 7.78617C7.19687 7.78343 7.19837 7.78343 7.19987 7.78044C7.42894 7.52443 7.6974 7.30659 7.99513 7.13512C7.99662 7.13512 7.99962 7.13362 8.00136 7.13362C8.30071 6.97778 8.58459 7.03064 8.77766 7.2583C8.77916 7.25979 9.17953 7.74029 9.35141 7.97493C9.52833 8.22372 9.69268 8.4812 9.84383 8.74642C10.0409 9.09975 9.91742 9.46155 9.72384 9.61067L9.33345 9.92086C9.13638 10.0799 9.16232 10.3754 9.16232 10.3754C9.16232 10.3754 9.74056 12.563 11.9011 13.1143Z" fill="#F8F8F8"/>
</g>
<defs>
<clipPath id="clip0_24_834">
<rect width="17.5938" height="17.5938" fill="white" transform="translate(2.42285 3.10834)"/>
</clipPath>
</defs>
</svg>
