<svg width="22" height="22" viewBox="0 0 22 22" fill="none" xmlns="http://www.w3.org/2000/svg">
<g clip-path="url(#clip0_24_860)">
<path fill-rule="evenodd" clip-rule="evenodd" d="M1.87293 2.11054C0.357422 3.62604 0.357422 6.06487 0.357422 10.9432V11.6108C0.357422 16.4891 0.357422 18.928 1.87293 20.4435C3.38843 21.959 5.82726 21.959 10.7056 21.959H11.3732C16.2515 21.959 18.6903 21.959 20.2059 20.4435C21.7214 18.928 21.7214 16.4891 21.7214 11.6108V10.9432C21.7214 6.06487 21.7214 3.62604 20.2059 2.11054C18.6903 0.595032 16.2515 0.595032 11.3732 0.595032H10.7056C5.82726 0.595032 3.38843 0.595032 1.87293 2.11054ZM3.02792 7.00431C3.15368 12.6756 6.17207 16.0839 11.464 16.0839H11.7639V12.8392C13.7085 13.021 15.1789 14.357 15.769 16.0839H18.5166C17.762 13.5027 15.7787 12.0758 14.5404 11.5305C15.7787 10.8579 17.5201 9.22196 17.936 7.00431H15.44C14.8982 8.80385 13.2925 10.4398 11.7639 10.5943V7.00431H9.26786V13.2937C7.71994 12.9301 5.76577 11.1669 5.67871 7.00431H3.02792Z" fill="#C4D600"/>
</g>
<defs>
<clipPath id="clip0_24_860">
<rect width="21.3639" height="21.3639" fill="white" transform="translate(0.357422 0.595032)"/>
</clipPath>
</defs>
</svg>
