<svg width="22" height="22" viewBox="0 0 22 22" fill="none" xmlns="http://www.w3.org/2000/svg">
<path d="M21.4711 16.5898C21.4711 16.7073 21.4675 16.9605 21.4601 17.1587C21.4418 17.6395 21.4053 18.2597 21.3467 18.5423C21.2589 18.9681 21.1309 19.3681 20.959 19.7021C20.7578 20.0985 20.5017 20.4508 20.1944 20.7555C19.8908 21.0601 19.5396 21.317 19.1445 21.5189C18.8116 21.6913 18.4092 21.8198 17.9812 21.9079C17.7032 21.9629 17.0886 22.0033 16.613 22.018C16.4155 22.0253 16.1631 22.029 16.046 22.029H5.52498C5.40792 22.029 5.1555 22.0253 4.95796 22.018C4.47874 21.9996 3.8605 21.9629 3.57882 21.9042C3.15446 21.8161 2.75572 21.6877 2.42282 21.5152C2.02774 21.3133 1.67655 21.0564 1.37292 20.7481C1.06929 20.4435 0.813212 20.0912 0.61201 19.6948C0.440075 19.3608 0.312037 18.9571 0.22424 18.5277C0.169367 18.2487 0.129127 17.6321 0.114494 17.155C0.110836 16.9605 0.107178 16.7073 0.107178 16.5898V6.03438C0.107178 5.91694 0.110836 5.6637 0.118152 5.46551C0.136443 4.98471 0.173025 4.36445 0.231557 4.08185C0.319354 3.65611 0.447391 3.25606 0.619327 2.92208C0.820528 2.5257 1.0766 2.17336 1.38023 1.86874C1.68387 1.56411 2.03505 1.3072 2.43014 1.10534C2.76304 0.93284 3.16544 0.804384 3.59345 0.7163C3.87147 0.661247 4.48605 0.620876 4.96162 0.606195C5.15916 0.598855 5.41158 0.595184 5.52864 0.595184H16.0496C16.1667 0.595184 16.4191 0.598855 16.6167 0.606195C17.0959 0.624546 17.7141 0.661247 17.9958 0.71997C18.4202 0.808054 18.8189 0.936511 19.1518 1.10901C19.5469 1.31087 19.8981 1.56778 20.2017 1.87608C20.5053 2.1807 20.7614 2.53304 20.9626 2.92942C21.1346 3.2634 21.2626 3.66712 21.3504 4.09653C21.4053 4.37546 21.4455 4.99205 21.4601 5.46918C21.4675 5.66737 21.4711 5.92061 21.4711 6.03805V16.5898Z" fill="#C4D600"/>
<path fill-rule="evenodd" clip-rule="evenodd" d="M16.4094 5.72587C14.9717 4.28349 13.0585 3.48706 11.0209 3.48706C6.82124 3.48706 3.40813 6.915 3.40447 11.1247C3.40447 12.4716 3.75566 13.7856 4.42146 14.9417L3.34229 18.9018L7.38095 17.8411C8.49304 18.4504 9.74415 18.7697 11.0209 18.7697H11.0245C15.2205 18.7697 18.6373 15.3417 18.6409 11.132C18.6409 9.08775 17.8471 7.16825 16.4094 5.72587ZM11.0245 17.4778C9.88682 17.4778 8.77107 17.1695 7.80164 16.5933L7.57117 16.4575L5.17505 17.0887L5.81523 14.7472L5.66525 14.5086C5.03238 13.4993 4.69582 12.3285 4.69582 11.1284C4.69582 7.62702 7.53825 4.77896 11.0282 4.77896C12.7183 4.77896 14.3096 5.43959 15.5022 6.63974C16.6984 7.83989 17.3569 9.43641 17.3532 11.132C17.3496 14.6297 14.5108 17.4778 11.0245 17.4778ZM14.4962 12.7249C14.3059 12.6295 13.3694 12.167 13.1975 12.1046C13.0219 12.0422 12.8975 12.0092 12.7695 12.2001C12.6415 12.3909 12.2793 12.8203 12.1659 12.9488C12.0561 13.0772 11.9427 13.0919 11.7525 12.9965C11.5623 12.9011 10.9477 12.6992 10.2234 12.0496C9.65635 11.5431 9.2759 10.9192 9.16615 10.7283C9.05641 10.5375 9.15518 10.4347 9.25029 10.3393C9.33443 10.2549 9.44052 10.1154 9.53563 10.0053C9.63075 9.89518 9.66367 9.81444 9.72586 9.68599C9.78805 9.55753 9.75878 9.44742 9.71123 9.352C9.66367 9.25658 9.28322 8.31701 9.12591 7.93531C8.97227 7.56462 8.81497 7.61234 8.6979 7.60867C8.58816 7.60133 8.46012 7.60133 8.33208 7.60133C8.20404 7.60133 7.99919 7.64904 7.82359 7.83989C7.648 8.03074 7.1578 8.49318 7.1578 9.43274C7.1578 10.3723 7.83822 11.2788 7.93334 11.4073C8.02845 11.5358 9.2759 13.4626 11.1855 14.2884C11.6391 14.4866 11.9939 14.604 12.272 14.6921C12.7292 14.8389 13.1426 14.8169 13.4719 14.7692C13.8377 14.7141 14.5986 14.3067 14.7559 13.8626C14.9132 13.4186 14.9132 13.0332 14.8656 12.9561C14.8108 12.868 14.6864 12.8203 14.4962 12.7249Z" fill="#F8F8F8"/>
</svg>
