<svg width="22" height="22" viewBox="0 0 22 22" fill="none" xmlns="http://www.w3.org/2000/svg">
<g clip-path="url(#clip0_24_896)">
<path fill-rule="evenodd" clip-rule="evenodd" d="M19.5962 4.26135C20.5105 4.5076 21.2315 5.22843 21.4776 6.14289C21.9349 7.8132 21.9173 11.2949 21.9173 11.2949C21.9173 11.2949 21.9173 14.7588 21.4777 16.4292C21.2315 17.3435 20.5107 18.0645 19.5962 18.3106C17.9257 18.7503 11.244 18.7503 11.244 18.7503C11.244 18.7503 4.57968 18.7503 2.89178 18.2932C1.97732 18.0469 1.25649 17.326 1.01024 16.4117C0.570679 14.7588 0.570679 11.2773 0.570679 11.2773C0.570679 11.2773 0.570679 7.8132 1.01024 6.14289C1.25633 5.22859 1.9949 4.49001 2.89162 4.24393C4.56209 3.8042 11.2438 3.8042 11.2438 3.8042C11.2438 3.8042 17.9257 3.8042 19.5962 4.26135ZM14.6733 11.2773L9.11695 14.4775V8.07701L14.6733 11.2773Z" fill="#C4D600"/>
</g>
<defs>
<clipPath id="clip0_24_896">
<rect width="21.3639" height="21.3639" fill="white" transform="translate(0.570557 0.595032)"/>
</clipPath>
</defs>
</svg>
