<svg width="162" height="52" viewBox="0 0 162 52" fill="none" xmlns="http://www.w3.org/2000/svg">
<path fill-rule="evenodd" clip-rule="evenodd" d="M82.1229 12.4246H86.4749V16.3381H82.1229V12.4246ZM82.1229 18.6128H86.4749V35.0493H82.1229V18.6128Z" fill="#747779"/>
<path fill-rule="evenodd" clip-rule="evenodd" d="M93.094 21.2287H93.1918C94.1942 19.3698 95.2944 18.4159 97.2259 18.4159C97.7149 18.4159 97.9838 18.4404 98.2528 18.5382V22.3538H98.155C95.2944 22.0603 93.2652 23.5768 93.2652 27.0255V35.0236H88.9132V18.6116H93.1185V21.2287H93.094Z" fill="#747779"/>
<path fill-rule="evenodd" clip-rule="evenodd" d="M106.746 12.4246H111.098V16.3381H106.746V12.4246ZM106.746 18.6128H111.098V35.0493H106.746V18.6128Z" fill="#747779"/>
<path fill-rule="evenodd" clip-rule="evenodd" d="M117.79 20.8636H117.888C119.013 19.1026 120.504 18.1731 122.754 18.1731C126.152 18.1731 128.426 20.7414 128.426 24.3124V35.0499H124.074V24.9483C124.074 23.1873 123.047 21.9398 121.213 21.9398C119.282 21.9398 117.888 23.4808 117.888 25.731V35.0499H113.536V18.6134H117.79V20.8636Z" fill="#747779"/>
<path fill-rule="evenodd" clip-rule="evenodd" d="M130.214 26.8058C130.214 21.9385 133.515 18.1473 138.307 18.1473C143.588 18.1473 146.4 22.1831 146.4 28.0532H134.493C134.811 30.5725 136.229 32.1624 138.698 32.1624C140.385 32.1624 141.388 31.4041 141.877 30.1323H146.155C145.544 33.0429 142.952 35.5133 138.723 35.5133C133.295 35.5133 130.214 31.7221 130.214 26.8058ZM134.566 25.0448H141.877C141.73 22.9657 140.361 21.5227 138.38 21.5227C136.058 21.5227 134.958 22.9168 134.566 25.0448Z" fill="#747779"/>
<path fill-rule="evenodd" clip-rule="evenodd" d="M147.4 29.7165H151.434C151.728 31.5998 153.073 32.4314 155.029 32.4314C156.96 32.4314 158.036 31.6976 158.036 30.5481C158.036 28.9827 155.958 28.8115 153.708 28.3712C150.774 27.7842 147.889 27.0015 147.889 23.406C147.889 19.8594 150.823 18.1473 154.588 18.1473C158.916 18.1473 161.312 20.2997 161.63 23.6017H157.693C157.498 21.8406 156.373 21.2047 154.515 21.2047C152.828 21.2047 151.703 21.8406 151.703 23.0391C151.703 24.4578 153.879 24.58 156.227 25.0448C158.989 25.6318 162.021 26.39 162.021 30.2301C162.021 33.5321 159.209 35.5133 155.102 35.5133C150.334 35.5133 147.669 33.2141 147.4 29.7165Z" fill="#747779"/>
<path fill-rule="evenodd" clip-rule="evenodd" d="M71.8523 12.4248H66.7914L57.6229 35.025H62.8061L64.4931 30.3778H73.8327L75.5686 35.025H80.7763L71.8523 12.4248ZM65.7645 26.5866L69.114 16.9742L72.5613 26.5866H65.7645Z" fill="#747779"/>
<path d="M104.323 12.4246H99.9714V35.0248H104.323V12.4246Z" fill="#747779"/>
<path fill-rule="evenodd" clip-rule="evenodd" d="M51.9745 25.9979C51.9745 40.3554 40.3367 51.9979 25.985 51.9979C11.6334 51.9979 -0.00439453 40.3554 -0.00439453 25.9979C-0.00439453 11.6404 11.6334 -0.00208282 25.985 -0.00208282C40.3367 -0.00208282 51.9745 11.6404 51.9745 25.9979Z" fill="#C4D600"/>
<path fill-rule="evenodd" clip-rule="evenodd" d="M24.1017 12.4242C20.0187 12.4242 17.3537 12.6444 15.4223 13.3537C12.195 14.6011 9.9701 17.2427 9.9701 20.7159C9.9701 23.602 11.3148 25.7055 15.2022 28.1025C19.3586 30.6218 20.1898 31.4534 20.1898 32.9699C20.1898 34.6331 18.5517 36.5164 14.3709 36.5164C12.904 36.5164 10.7036 36.3208 9.30997 35.9783L8.64985 35.8071C8.28311 36.8099 7.42739 39.1825 7.15845 40.0385L7.81857 40.2342C9.08993 40.6256 12.0727 40.9435 14.2242 40.9435C21.3634 40.9435 25.642 36.6143 25.642 32.0893C25.642 29.301 24.3706 27.1975 20.1165 24.5315C17.965 23.2107 16.8892 22.3546 16.2291 21.6942C15.6912 21.0583 15.6423 20.5447 15.6423 20.0066C15.6423 19.4929 15.7645 18.8814 16.1068 18.4656C16.4736 17.9275 17.1581 17.5851 18.0628 17.2916C19.0163 16.9736 20.7522 16.9736 23.466 16.9736H26.0087L27.818 12.4487L24.1017 12.4242ZM43.2209 12.4242H30.5074L28.6981 16.9492H32.9034C35.7395 16.9492 36.2774 16.9003 36.9864 16.9003C35.9595 19.2483 29.7739 35.0489 29.7739 35.0489H35.0305C35.0305 35.0489 42.8786 15.3838 43.7099 13.3292C43.93 12.8645 43.8077 12.4242 43.2209 12.4242Z" fill="white"/>
</svg>
