<svg width="169" height="55" viewBox="0 0 169 55" fill="none" xmlns="http://www.w3.org/2000/svg">
<path fill-rule="evenodd" clip-rule="evenodd" d="M85.6454 13.536H90.1561V17.5594H85.6454V13.536ZM85.6454 19.898H90.1561V36.7962H85.6454V19.898Z" fill="white"/>
<path fill-rule="evenodd" clip-rule="evenodd" d="M97.0169 22.5872H97.1183C98.1573 20.6761 99.2976 19.6954 101.3 19.6954C101.806 19.6954 102.085 19.7206 102.364 19.8211V23.7439H102.263C99.2976 23.4422 97.1943 25.0012 97.1943 28.5469V36.7696H92.6835V19.8966H97.0422V22.5872H97.0169Z" fill="white"/>
<path fill-rule="evenodd" clip-rule="evenodd" d="M111.167 13.536H115.678V17.5594H111.167V13.536ZM111.167 19.898H115.678V36.7962H111.167V19.898Z" fill="white"/>
<path fill-rule="evenodd" clip-rule="evenodd" d="M122.614 22.2117H122.715C123.881 20.4011 125.427 19.4456 127.758 19.4456C131.281 19.4456 133.638 22.0859 133.638 25.7573V36.7964H129.127V26.4111C129.127 24.6006 128.062 23.3181 126.162 23.3181C124.16 23.3181 122.715 24.9023 122.715 27.2158V36.7964H118.205V19.8982H122.614V22.2117Z" fill="white"/>
<path fill-rule="evenodd" clip-rule="evenodd" d="M135.492 28.321C135.492 23.3169 138.913 19.4192 143.88 19.4192C149.353 19.4192 152.268 23.5683 152.268 29.6034H139.926C140.256 32.1935 141.726 33.828 144.285 33.828C146.034 33.828 147.073 33.0484 147.579 31.7408H152.014C151.381 34.7332 148.694 37.273 144.31 37.273C138.685 37.273 135.492 33.3753 135.492 28.321ZM140.002 26.5104H147.579C147.427 24.373 146.008 22.8894 143.956 22.8894C141.548 22.8894 140.408 24.3227 140.002 26.5104Z" fill="white"/>
<path fill-rule="evenodd" clip-rule="evenodd" d="M153.305 31.3133H157.487C157.791 33.2496 159.184 34.1046 161.212 34.1046C163.214 34.1046 164.329 33.3502 164.329 32.1683C164.329 30.559 162.175 30.3829 159.843 29.9303C156.802 29.3268 153.812 28.5221 153.812 24.8256C153.812 21.1795 156.853 19.4192 160.756 19.4192C165.241 19.4192 167.724 21.6321 168.054 25.0268H163.974C163.771 23.2163 162.606 22.5625 160.68 22.5625C158.931 22.5625 157.765 23.2163 157.765 24.4484C157.765 25.9069 160.021 26.0327 162.453 26.5104C165.317 27.1139 168.459 27.8935 168.459 31.8414C168.459 35.2361 165.545 37.273 161.288 37.273C156.346 37.273 153.584 34.9092 153.305 31.3133Z" fill="white"/>
<path fill-rule="evenodd" clip-rule="evenodd" d="M74.9998 13.5359H69.7541L60.2511 36.771H65.6235L67.372 31.9932H77.0524L78.8516 36.771H84.2493L74.9998 13.5359ZM68.6898 28.0955L72.1615 18.2131L75.7347 28.0955H68.6898Z" fill="white"/>
<path d="M108.656 13.536H104.145V36.771H108.656V13.536Z" fill="white"/>
<path fill-rule="evenodd" clip-rule="evenodd" d="M54.3962 27.4901C54.3962 42.2509 42.3337 54.2205 27.4584 54.2205C12.583 54.2205 0.520508 42.2509 0.520508 27.4901C0.520508 12.7293 12.583 0.759766 27.4584 0.759766C42.3337 0.759766 54.3962 12.7293 54.3962 27.4901Z" fill="white"/>
<path fill-rule="evenodd" clip-rule="evenodd" d="M25.5066 13.5354C21.2746 13.5354 18.5124 13.7617 16.5104 14.491C13.1654 15.7734 10.8593 18.4892 10.8593 22.06C10.8593 25.0272 12.2531 27.1898 16.2824 29.6541C20.5904 32.2441 21.452 33.0991 21.452 34.6582C21.452 36.3681 19.7541 38.3044 15.4208 38.3044C13.9003 38.3044 11.6196 38.1032 10.1751 37.7512L9.49089 37.5751C9.11077 38.6061 8.22382 41.0453 7.94507 41.9254L8.62928 42.1266C9.94703 42.5289 13.0387 42.8558 15.2687 42.8558C22.6684 42.8558 27.1031 38.4049 27.1031 33.7529C27.1031 30.8863 25.7854 28.7237 21.376 25.9828C19.1459 24.6249 18.0309 23.7447 17.3467 23.0658C16.7892 22.412 16.7385 21.8839 16.7385 21.3307C16.7385 20.8027 16.8652 20.174 17.22 19.7465C17.6001 19.1933 18.3097 18.8413 19.2473 18.5395C20.2356 18.2126 22.0349 18.2126 24.8477 18.2126H27.4832L29.3585 13.5606L25.5066 13.5354ZM45.3236 13.5354H32.1461L30.2708 18.1875H34.6295C37.5691 18.1875 38.1266 18.1372 38.8615 18.1372C37.7972 20.5512 31.3858 36.7956 31.3858 36.7956H36.8342C36.8342 36.7956 44.9688 16.5781 45.8304 14.4658C46.0585 13.988 45.9318 13.5354 45.3236 13.5354Z" fill="#C4D600"/>
</svg>
