<svg width="20" height="21" viewBox="0 0 20 21" fill="none" xmlns="http://www.w3.org/2000/svg">
<path d="M15.015 13.8644C14.3949 13.8644 13.84 14.1092 13.4157 14.4927L7.59773 11.1064C7.63853 10.9187 7.67117 10.731 7.67117 10.5352C7.67117 10.3394 7.63853 10.1517 7.59773 9.96401L13.3504 6.61032C13.791 7.01831 14.3704 7.27127 15.015 7.27127C16.3696 7.27127 17.463 6.17785 17.463 4.82332C17.463 3.46878 16.3696 2.37537 15.015 2.37537C13.6605 2.37537 12.5671 3.46878 12.5671 4.82332C12.5671 5.01915 12.5997 5.20683 12.6405 5.39451L6.88783 8.7482C6.44719 8.34021 5.86785 8.08725 5.22322 8.08725C3.86869 8.08725 2.77527 9.18067 2.77527 10.5352C2.77527 11.8897 3.86869 12.9832 5.22322 12.9832C5.86785 12.9832 6.44719 12.7302 6.88783 12.3222L12.6976 15.7167C12.6568 15.8881 12.6323 16.0676 12.6323 16.2471C12.6323 17.5608 13.7013 18.6298 15.015 18.6298C16.3288 18.6298 17.3977 17.5608 17.3977 16.2471C17.3977 14.9334 16.3288 13.8644 15.015 13.8644Z" fill="#747779"/>
</svg>
