<svg width="20" height="21" viewBox="0 0 20 21" fill="none" xmlns="http://www.w3.org/2000/svg">
<g clip-path="url(#clip0_24_781)">
<path fill-rule="evenodd" clip-rule="evenodd" d="M13.9684 3.51616C15.4992 3.51616 16.8896 4.36641 17.5962 5.6981C17.7545 5.99593 17.6795 6.36721 17.4159 6.57773L11.3572 11.4239C10.9329 11.7666 10.4189 11.9371 9.90479 11.9371H9.89662H9.88846C9.3744 11.9371 8.86033 11.7666 8.43601 11.4239L2.37734 6.57773C2.11377 6.36721 2.0387 5.99593 2.197 5.6981C2.90365 4.36641 4.29408 3.51616 5.82487 3.51616H13.9684ZM13.8783 18.1138C16.1135 18.1058 17.9081 16.2952 17.9081 14.06C17.9081 14.06 17.9081 10.5638 17.9001 8.79405C17.8993 8.45998 17.5131 8.27251 17.2503 8.48161C16.1323 9.36971 14.5472 10.6381 13.4014 11.5549C12.5669 12.2226 11.9654 12.7039 11.9475 12.7157C11.3787 13.1803 10.6577 13.4375 9.92064 13.4375C9.18359 13.4375 8.46255 13.1803 7.89374 12.7245C7.85128 12.6884 4.4472 9.93489 2.54368 8.42473C2.2817 8.21643 1.89715 8.4039 1.89635 8.73878C1.88994 10.5221 1.88513 14.068 1.88513 14.068V14.076C1.88513 16.3112 3.70374 18.1138 5.93093 18.1138H13.8703H13.8783Z" fill="#747779"/>
</g>
<defs>
<clipPath id="clip0_24_781">
<rect width="19.5836" height="19.5836" fill="white" transform="translate(0.104858 0.845673)"/>
</clipPath>
</defs>
</svg>
