<svg width="20" height="21" viewBox="0 0 20 21" fill="none" xmlns="http://www.w3.org/2000/svg">
<path d="M7.55901 17.7258V15.2308C7.55901 14.5938 8.07911 14.0775 8.72069 14.0775H11.066C11.3741 14.0775 11.6695 14.199 11.8874 14.4153C12.1053 14.6316 12.2277 14.9249 12.2277 15.2308V17.7258C12.2257 17.9906 12.3303 18.2452 12.5182 18.4331C12.7062 18.6211 12.9619 18.7267 13.2286 18.7267H14.8286C15.5759 18.7287 16.2933 18.4353 16.8224 17.9114C17.3515 17.3875 17.6488 16.6762 17.6488 15.9343V8.8263C17.6488 8.22705 17.3812 7.65862 16.9182 7.27415L11.4751 2.95857C10.5283 2.2019 9.17167 2.22634 8.2531 3.0166L2.93421 7.27415C2.44929 7.64728 2.15946 8.2174 2.14514 8.8263V15.9271C2.14514 17.4733 3.40778 18.7267 4.96532 18.7267H6.52884C7.08284 18.7268 7.53308 18.283 7.53709 17.7331L7.55901 17.7258Z" fill="#747779"/>
</svg>
