<svg width="20" height="20" viewBox="0 0 20 20" fill="none" xmlns="http://www.w3.org/2000/svg">
<path fill-rule="evenodd" clip-rule="evenodd" d="M3.70232 2.15708C2.8615 2.32887 2.19289 2.98986 1.9425 3.89695C1.88798 4.09447 1.88525 4.39182 1.88525 10.1409C1.88525 15.89 1.88798 16.1873 1.9425 16.3848C2.16817 17.2023 2.69111 17.7824 3.44601 18.0526C3.62966 18.1183 3.74951 18.1361 4.09431 18.1484C4.62207 18.1672 4.87976 18.1169 5.26934 17.9192C5.84169 17.6287 6.24098 17.1315 6.44926 16.45L6.52271 16.2096V10.1409V4.07216L6.44926 3.83182C6.24095 3.15026 5.84166 2.65304 5.26934 2.36264C5.11424 2.28392 4.88863 2.19838 4.768 2.1725C4.53446 2.12243 3.91574 2.11348 3.70232 2.15708ZM7.53364 3.55913C7.33993 3.66711 7.35306 3.18866 7.35306 10.1409C7.35306 17.1187 7.33874 16.6173 7.54107 16.7248C7.62351 16.7686 8.13297 16.7732 12.0605 16.7655L16.487 16.757L16.6728 16.6849C17.2176 16.4737 17.6173 16.063 17.8126 15.5136L17.897 15.276L17.906 10.2053C17.9124 6.6229 17.905 5.07316 17.8806 4.92532C17.7758 4.28973 17.2617 3.72381 16.6373 3.55668C16.3675 3.48447 7.66333 3.48682 7.53364 3.55913ZM16.039 4.94316C16.2354 5.01189 16.4341 5.19576 16.5223 5.39035C16.5928 5.54594 16.596 5.5849 16.5963 6.27326L16.5966 6.99336L16.475 7.11838L16.3533 7.24336H12.6481C8.98786 7.24336 8.94158 7.24258 8.84062 7.17845C8.65001 7.0574 8.63776 6.99005 8.63776 6.06287C8.63776 5.14241 8.64776 5.08807 8.84144 4.95713C8.93359 4.8948 9.00334 4.89355 12.4158 4.89335C15.4816 4.89316 15.9131 4.89908 16.039 4.94316ZM10.2563 8.38634C10.9691 8.71318 10.9755 9.73746 10.2671 10.1136C10.052 10.2278 9.72725 10.2361 9.50807 10.133C9.13482 9.95742 8.93829 9.65591 8.93735 9.25744C8.93563 8.54039 9.61451 8.09205 10.2563 8.38634ZM12.8445 8.31818C13.161 8.39471 13.3904 8.60675 13.5127 8.93571C13.5825 9.1236 13.5618 9.4932 13.4714 9.67407C13.1126 10.3914 12.1078 10.3712 11.782 9.64004C11.5396 9.09601 11.8693 8.42224 12.4338 8.3082C12.6269 8.26922 12.6436 8.2696 12.8445 8.31818ZM15.7819 8.37488C16.1001 8.5165 16.3204 8.86076 16.3241 9.22212C16.3267 9.48116 16.2768 9.64181 16.1348 9.83186C15.8945 10.1536 15.469 10.2854 15.0893 10.1559C14.8653 10.0794 14.5928 9.8044 14.5184 9.57981C14.2508 8.77113 15.0213 8.03635 15.7819 8.37488ZM10.183 10.8682C10.2636 10.8965 10.3967 10.9816 10.4788 11.0575C10.8767 11.4251 10.906 12.0374 10.5443 12.4242C9.95267 13.0568 8.94061 12.6422 8.93935 11.7667C8.93879 11.3801 9.11467 11.0921 9.45941 10.9151C9.68269 10.8004 9.94151 10.7837 10.183 10.8682ZM12.9701 10.8813C13.1597 10.9541 13.3737 11.1533 13.4718 11.3482C13.5161 11.4361 13.541 11.5587 13.5501 11.7345C13.5627 11.9773 13.5574 12.0041 13.4581 12.2004C13.128 12.8524 12.2579 12.9139 11.8609 12.3133C11.5179 11.7944 11.7486 11.075 12.3257 10.8635C12.501 10.7992 12.7764 10.8068 12.9701 10.8813ZM15.8174 10.9221C16.6857 11.3839 16.3748 12.726 15.3995 12.726C15.225 12.726 15.1523 12.708 14.9853 12.6235C14.6707 12.4643 14.4978 12.2014 14.4729 11.8438C14.4525 11.5501 14.5224 11.3473 14.721 11.1241C14.9127 10.9085 15.1101 10.8211 15.411 10.8187C15.5874 10.8173 15.6505 10.8333 15.8174 10.9221ZM10.2838 13.4399C10.8486 13.7239 10.9694 14.5093 10.5193 14.9717C10.0954 15.4072 9.40181 15.3302 9.07798 14.8116C8.8086 14.3803 8.91501 13.8253 9.3268 13.5142C9.59624 13.3106 9.9689 13.2817 10.2838 13.4399ZM13.0193 13.4255C13.2207 13.5146 13.4383 13.7537 13.5073 13.9619C13.5717 14.1561 13.5709 14.4345 13.5053 14.6322C13.4307 14.8574 13.1865 15.103 12.9462 15.1946C12.3413 15.4252 11.703 14.9621 11.703 14.2925C11.703 13.5924 12.3831 13.1443 13.0193 13.4255ZM15.6192 13.3657C16.0388 13.4728 16.3238 13.8484 16.3238 14.294C16.3238 14.9632 15.6816 15.4279 15.0795 15.1943C14.7105 15.0512 14.4925 14.7438 14.4713 14.3366C14.461 14.1387 14.4713 14.0785 14.5427 13.918C14.7437 13.4665 15.1658 13.25 15.6192 13.3657Z" fill="#747779"/>
</svg>
