<svg width="20" height="20" viewBox="0 0 20 20" fill="none" xmlns="http://www.w3.org/2000/svg">
<g clip-path="url(#clip0_24_797)">
<path d="M13.7931 18.3939H6.00037C3.73146 18.3939 1.88525 16.5648 1.88525 14.3161V9.82201C1.88525 7.57332 3.73146 5.74422 6.00037 5.74422H13.7931C16.062 5.74422 17.9082 7.57332 17.9082 9.82201V14.3161C17.9082 16.5648 16.062 18.3939 13.7931 18.3939Z" fill="#747779"/>
<path d="M13.0635 8.27418C12.7167 8.27418 12.4353 8.00124 12.4353 7.66493V5.20191C12.4353 3.84773 11.2996 2.74619 9.90425 2.74619C9.26186 2.74619 8.58764 2.99639 8.10772 3.45699C7.62697 3.91922 7.36063 4.53416 7.35812 5.19053V7.66493C7.35812 8.00124 7.07671 8.27418 6.72996 8.27418C6.38322 8.27418 6.10181 8.00124 6.10181 7.66493V5.20191C6.10599 4.20354 6.50466 3.28234 7.22328 2.59266C7.94105 1.90136 8.86905 1.55449 9.90677 1.52768C11.9922 1.52768 13.6916 3.17592 13.6916 5.20191V7.66493C13.6916 8.00124 13.4102 8.27418 13.0635 8.27418Z" fill="#747779"/>
</g>
<defs>
<clipPath id="clip0_24_797">
<rect width="19.5836" height="19.5836" fill="white" transform="translate(0.10498 0.168671)"/>
</clipPath>
</defs>
</svg>
