<svg width="20" height="21" viewBox="0 0 20 21" fill="none" xmlns="http://www.w3.org/2000/svg">
<path fill-rule="evenodd" clip-rule="evenodd" d="M11.671 2.52898C11.489 2.50289 11.3061 2.55671 11.1607 2.6725C11.0111 2.78992 10.9177 2.95953 10.8974 3.14952C10.8543 3.53359 11.1314 3.88096 11.515 3.92417C14.1601 4.21936 16.2161 6.27993 16.5135 8.93332C16.5533 9.28885 16.8516 9.55712 17.2075 9.55712C17.2343 9.55712 17.2603 9.55549 17.2871 9.55223C17.4732 9.53184 17.639 9.4397 17.756 9.29292C17.8722 9.14615 17.9251 8.96349 17.9039 8.77676C17.5334 5.46614 14.9711 2.89674 11.671 2.52898ZM11.7216 5.3701C11.3332 5.29834 10.9764 5.54623 10.9025 5.9254C10.8285 6.30458 11.0772 6.67478 11.4551 6.74898C12.5928 6.97078 13.4712 7.85144 13.6939 8.99303V8.99384C13.7573 9.32246 14.0466 9.56138 14.3798 9.56138C14.4245 9.56138 14.4692 9.5573 14.5147 9.54915C14.8926 9.47331 15.1412 9.10393 15.0673 8.72394C14.7349 7.01889 13.4225 5.70198 11.7216 5.3701ZM13.5061 13.2424C13.8808 13.0263 14.3041 12.7823 14.838 12.8959C15.3216 12.9979 16.9699 14.3358 17.4213 14.7995C17.7172 15.1031 17.8817 15.4167 17.9073 15.7302C17.952 16.9603 16.2805 18.3646 15.9763 18.5397C15.572 18.8308 15.1017 18.9776 14.5734 18.9776C14.0336 18.9776 13.4318 18.8242 12.7755 18.5181C9.21426 17.0317 3.77407 11.6989 2.33569 8.16531C1.73885 6.84975 1.73472 5.76478 2.32577 4.9494C2.56137 4.56701 3.90468 2.96859 5.10745 3.01919C5.42737 3.04656 5.73819 3.2108 6.04322 3.50942C6.5045 3.96148 7.80895 5.61465 7.9098 6.09989C8.0214 6.63906 7.77671 7.0679 7.5593 7.44449C7.51293 7.52544 7.45045 7.62151 7.382 7.72676C7.12223 8.1262 6.77646 8.65787 6.89881 8.99728C7.77589 11.1506 9.80201 13.0294 11.9563 13.912C12.2894 14.033 12.8208 13.6848 13.2189 13.4239C13.3227 13.3559 13.4174 13.2938 13.4971 13.2476L13.5061 13.2424Z" fill="#747779"/>
</svg>
