<svg width="20" height="21" viewBox="0 0 20 21" fill="none" xmlns="http://www.w3.org/2000/svg">
<g clip-path="url(#clip0_24_789)">
<g clip-path="url(#clip1_24_789)">
<path d="M2.9668 6.32828H5.92103C6.24149 5.07019 6.70215 3.86243 7.30301 2.74525C5.46037 3.37933 3.92818 4.65754 2.9668 6.32828ZM5.39027 10.3541C5.39027 9.66975 5.45036 9.00548 5.53048 8.34121H2.14563C1.9854 8.98535 1.88525 9.65968 1.88525 10.3541C1.88525 11.0486 1.9854 11.7229 2.14563 12.3671H5.53048C5.45036 11.7028 5.39027 11.0385 5.39027 10.3541ZM2.9668 14.38C3.92818 16.0507 5.46037 17.329 7.30301 17.963C6.70215 16.8459 6.24149 15.6381 5.92103 14.38H2.9668ZM9.89673 2.34267C9.06554 3.55043 8.41461 4.88903 7.98399 6.32828H11.8095C11.3789 4.88903 10.7279 3.55043 9.89673 2.34267ZM16.8267 6.32828C15.8653 4.66761 14.3331 3.37933 12.4904 2.74525C13.0913 3.86243 13.552 5.07019 13.8724 6.32828H16.8267ZM9.89673 18.3656C10.7279 17.1579 11.3789 15.8193 11.8095 14.38H7.98399C8.41461 15.8193 9.06554 17.1579 9.89673 18.3656ZM12.4904 17.963C14.3331 17.329 15.8653 16.0407 16.8267 14.38H13.8724C13.552 15.6381 13.0913 16.8459 12.4904 17.963ZM17.6478 8.34121H14.263C14.3431 9.00548 14.4032 9.66975 14.4032 10.3541C14.4032 11.0385 14.3431 11.7028 14.263 12.3671H17.6478C17.8081 11.7229 17.9082 11.0486 17.9082 10.3541C17.9082 9.65968 17.8081 8.98535 17.6478 8.34121ZM7.55337 8.34121C7.46324 8.99541 7.39314 9.66975 7.39314 10.3541C7.39314 11.0385 7.46324 11.7028 7.55337 12.3671H12.2401C12.3302 11.7028 12.4003 11.0385 12.4003 10.3541C12.4003 9.66975 12.3302 8.99541 12.2401 8.34121H7.55337Z" fill="#747779" stroke="#747779" stroke-width="0.445082"/>
</g>
</g>
<defs>
<clipPath id="clip0_24_789">
<rect width="19.5836" height="19.5836" fill="white" transform="translate(0.10498 0.562225)"/>
</clipPath>
<clipPath id="clip1_24_789">
<rect width="19.5836" height="19.5836" fill="white" transform="translate(0.10498 0.562225)"/>
</clipPath>
</defs>
</svg>
