<svg width="48" height="47" viewBox="0 0 48 47" fill="none" xmlns="http://www.w3.org/2000/svg">
<rect x="0.516571" y="-1.52588e-05" width="46.8489" height="46.8489" rx="12.1685" fill="#C4D600"/>
<path d="M23.9313 13.9938C18.7256 13.9938 14.5102 18.2188 14.5102 23.4245C14.5102 28.6302 18.7256 32.8551 23.9313 32.8551C29.1465 32.8551 33.3714 28.6302 33.3714 23.4245C33.3714 18.2188 29.1465 13.9938 23.9313 13.9938ZM30.4668 19.6522H27.6847C27.383 18.4734 26.9491 17.3417 26.3833 16.2949C28.1185 16.889 29.5614 18.0962 30.4668 19.6522ZM23.9408 15.9177C24.7235 17.0494 25.3365 18.3036 25.742 19.6522H22.1395C22.545 18.3036 23.158 17.0494 23.9408 15.9177ZM16.6415 25.3106C16.4906 24.707 16.3963 24.0752 16.3963 23.4245C16.3963 22.7737 16.4906 22.1419 16.6415 21.5383H19.829C19.7536 22.1607 19.697 22.7832 19.697 23.4245C19.697 24.0657 19.7536 24.6882 19.829 25.3106H16.6415ZM17.4148 27.1967H20.1968C20.4986 28.3755 20.9324 29.5072 21.4982 30.554C19.763 29.9599 18.3201 28.7622 17.4148 27.1967ZM20.1968 19.6522H17.4148C18.3201 18.0867 19.763 16.889 21.4982 16.2949C20.9324 17.3417 20.4986 18.4734 20.1968 19.6522ZM23.9408 30.9312C23.158 29.7995 22.545 28.5453 22.1395 27.1967H25.742C25.3365 28.5453 24.7235 29.7995 23.9408 30.9312ZM26.1475 25.3106H21.734C21.6491 24.6882 21.5831 24.0657 21.5831 23.4245C21.5831 22.7832 21.6491 22.1513 21.734 21.5383H26.1475C26.2324 22.1513 26.2984 22.7832 26.2984 23.4245C26.2984 24.0657 26.2324 24.6882 26.1475 25.3106ZM26.3833 30.554C26.9491 29.5072 27.383 28.3755 27.6847 27.1967H30.4668C29.5614 28.7527 28.1185 29.9599 26.3833 30.554ZM28.0525 25.3106C28.128 24.6882 28.1846 24.0657 28.1846 23.4245C28.1846 22.7832 28.128 22.1607 28.0525 21.5383H31.2401C31.391 22.1419 31.4853 22.7737 31.4853 23.4245C31.4853 24.0752 31.391 24.707 31.2401 25.3106H28.0525Z" fill="white"/>
</svg>
