<svg width="47" height="48" viewBox="0 0 47 48" fill="none" xmlns="http://www.w3.org/2000/svg">
<rect x="0.0336914" y="0.758423" width="46.8489" height="46.8489" rx="12.1685" fill="#FAFAFA"/>
<g clip-path="url(#clip0_24_706)">
<rect x="14.6357" y="15.969" width="17.6444" height="18.8612" rx="8.51797" fill="#FAFAFA"/>
<path d="M34.1056 24.2417C34.1056 18.3356 29.337 13.5354 23.4465 13.5354C17.5792 13.5354 12.8107 18.3356 12.8107 24.2417C12.8107 29.5831 16.7144 34.0303 21.7868 34.8303V27.3477H19.0753V24.2417H21.7868V21.8887C21.7868 19.2062 23.3763 17.7238 25.8074 17.7238C26.9761 17.7238 28.1916 17.9591 28.1916 17.9591V20.571H26.8593C25.5269 20.571 25.1061 21.3945 25.1061 22.2416V24.2417H28.0514L27.5839 27.3477H25.1061V34.8303C30.2019 34.0303 34.1056 29.6066 34.1056 24.2417Z" fill="#C4D600"/>
</g>
<defs>
<clipPath id="clip0_24_706">
<rect width="21.2949" height="21.2949" fill="white" transform="translate(12.8107 13.5354)"/>
</clipPath>
</defs>
</svg>
