<svg width="48" height="47" viewBox="0 0 48 47" fill="none" xmlns="http://www.w3.org/2000/svg">
<rect x="0.275421" y="-1.52588e-05" width="46.8489" height="46.8489" rx="12.1685" fill="#FAFAFA"/>
<g clip-path="url(#clip0_24_662)">
<path fill-rule="evenodd" clip-rule="evenodd" d="M33.7389 28.9307C33.7389 31.4345 31.7237 33.4635 29.2379 33.4635H17.5534C15.0675 33.4635 13.0524 31.4345 13.0524 28.9307V17.3097C13.0524 14.8059 15.0675 12.7769 17.5534 12.7769H29.2379C31.7237 12.7769 33.7389 14.8059 33.7389 17.3097V28.9307Z" fill="#C4D600"/>
<path fill-rule="evenodd" clip-rule="evenodd" d="M26.5108 30.9118H20.2236C17.8184 30.9118 15.8484 28.9379 15.8484 26.5277V19.811C15.8452 17.4008 17.8152 15.4268 20.2204 15.4268H26.5076C28.9129 15.4268 30.8829 17.4008 30.8829 19.811V26.5245C30.8861 28.9379 28.9161 30.9118 26.5108 30.9118ZM26.5108 29.752C27.3653 29.752 28.1713 29.416 28.7839 28.8022C29.3933 28.1916 29.7318 27.3806 29.7318 26.5245V19.811C29.7318 18.9548 29.3965 18.1471 28.7839 17.5333C28.1745 16.9227 27.3653 16.5835 26.5108 16.5835H20.2236C19.3692 16.5835 18.5632 16.9195 17.9506 17.5333C17.3412 18.1439 17.0027 18.9548 17.0027 19.811V26.5245C17.0027 27.3806 17.338 28.1883 17.9506 28.8022C18.5599 29.4128 19.3692 29.752 20.2236 29.752H26.5108Z" fill="#FAFAFA"/>
<path fill-rule="evenodd" clip-rule="evenodd" d="M27.5294 23.1094C27.5294 25.4 25.6754 27.2577 23.3895 27.2577C21.1035 27.2577 19.2496 25.4 19.2496 23.1094C19.2496 20.8188 21.1035 18.9611 23.3895 18.9611C25.6754 18.9611 27.5294 20.8188 27.5294 23.1094ZM23.3669 20.3955C21.8709 20.3955 20.6554 21.6135 20.6554 23.1126C20.6554 24.6117 21.8709 25.8297 23.3669 25.8297C24.8629 25.8297 26.0785 24.6117 26.0785 23.1126C26.0785 21.6103 24.8662 20.3955 23.3669 20.3955Z" fill="#FAFAFA"/>
<path d="M28.5565 19.0918C28.6657 18.5605 28.3245 18.0411 27.7943 17.9317C27.2641 17.8222 26.7458 18.1641 26.6365 18.6954C26.5273 19.2266 26.8685 19.746 27.3987 19.8555C27.9289 19.965 28.4472 19.623 28.5565 19.0918Z" fill="#FAFAFA"/>
</g>
<defs>
<clipPath id="clip0_24_662">
<rect width="21.2949" height="21.2949" fill="white" transform="translate(13.0524 12.7769)"/>
</clipPath>
</defs>
</svg>
