<svg width="48" height="48" viewBox="0 0 48 48" fill="none" xmlns="http://www.w3.org/2000/svg">
<rect x="0.848366" y="0.576859" width="46.8489" height="46.8489" rx="12.1685" fill="#FAFAFA"/>
<g clip-path="url(#clip0_24_588)">
<g clip-path="url(#clip1_24_588)">
<rect x="16.6676" y="15.7877" width="15.8191" height="17.0359" fill="#FAFAFA"/>
<path d="M31.8612 31.5883H28.7958V26.7877C28.7958 25.643 28.7753 24.1693 27.2015 24.1693C25.6049 24.1693 25.3606 25.4165 25.3606 26.7043V31.5879H22.2953V21.716H25.238V23.0651H25.2793C25.8784 22.0406 26.9966 21.4265 28.1827 21.4705C31.2896 21.4705 31.8625 23.5141 31.8625 26.1727L31.8612 31.5883ZM18.8365 20.3666C17.8606 20.3666 17.0572 19.5637 17.0572 18.5878C17.0572 17.6119 17.8602 16.8089 18.8361 16.8089C19.8119 16.8089 20.6148 17.6117 20.615 18.5874C20.615 19.5631 19.8122 20.3665 18.8365 20.3666ZM20.3692 31.5883H17.3006V21.716H20.3692V31.5883ZM33.3893 13.9622H15.7602C14.9326 13.9529 14.2437 14.6258 14.2336 15.4533V33.1557C14.2433 33.9837 14.9322 34.6574 15.7602 34.6485H33.3893C34.2194 34.6589 34.9106 33.9854 34.9217 33.1557V15.4521C34.9106 14.6228 34.2184 13.9513 33.3893 13.9622Z" fill="#C4D600"/>
</g>
</g>
<defs>
<clipPath id="clip0_24_588">
<rect width="21.2949" height="21.2949" fill="white" transform="translate(13.6253 13.3538)"/>
</clipPath>
<clipPath id="clip1_24_588">
<rect width="21.9034" height="21.9034" fill="white" transform="translate(13.6253 13.3538)"/>
</clipPath>
</defs>
</svg>
