<svg width="44" height="44" viewBox="0 0 44 44" fill="none" xmlns="http://www.w3.org/2000/svg">
<path fill-rule="evenodd" clip-rule="evenodd" d="M43.3876 21.9339C43.3876 33.7636 33.7204 43.3563 21.7988 43.3563C9.87728 43.3563 0.210068 33.7636 0.210068 21.9339C0.210068 10.1042 9.87728 0.511414 21.7988 0.511414C33.7204 0.511414 43.3876 10.1042 43.3876 21.9339Z" fill="white"/>
<path fill-rule="evenodd" clip-rule="evenodd" d="M20.2343 10.7505C16.8427 10.7505 14.629 10.9318 13.0245 11.5163C10.3437 12.5441 8.49557 14.7206 8.49557 17.5823C8.49557 19.9603 9.61258 21.6934 12.8418 23.6684C16.2943 25.7442 16.9848 26.4294 16.9848 27.6788C16.9848 29.0492 15.6241 30.601 12.1512 30.601C10.9327 30.601 9.10485 30.4398 7.94722 30.1576L7.39887 30.0166C7.09423 30.8428 6.38341 32.7976 6.16 33.503L6.70835 33.6642C7.76444 33.9867 10.2422 34.2486 12.0294 34.2486C17.9597 34.2486 21.5138 30.6816 21.5138 26.9533C21.5138 24.6559 20.4577 22.9228 16.9239 20.7261C15.1367 19.6379 14.2431 18.9325 13.6947 18.3884C13.2479 17.8644 13.2073 17.4412 13.2073 16.9978C13.2073 16.5746 13.3089 16.0708 13.5932 15.7282C13.8978 15.2848 14.4665 15.0027 15.2179 14.7609C16.01 14.4989 17.452 14.4989 19.7063 14.4989H21.8184L23.3213 10.7706L20.2343 10.7505ZM36.1162 10.7505H25.5554L24.0525 14.4787H27.5457C29.9015 14.4787 30.3483 14.4384 30.9373 14.4384C30.0843 16.3731 24.9461 29.3918 24.9461 29.3918H29.3126C29.3126 29.3918 35.8318 13.1889 36.5224 11.4961C36.7051 11.1132 36.6036 10.7505 36.1162 10.7505Z" fill="#C4D600"/>
</svg>
