<svg width="47" height="47" viewBox="0 0 47 47" fill="none" xmlns="http://www.w3.org/2000/svg">
<rect width="46.8489" height="46.8489" rx="12.1685" fill="#C4D600"/>
<path d="M30.1594 26.0904C29.0784 26.0904 28.0326 25.9146 27.0571 25.5982C26.7495 25.4928 26.4068 25.5719 26.1695 25.8092L24.7897 27.5405C22.3026 26.354 19.9737 24.113 18.7345 21.538L20.4482 20.0791C20.6855 19.833 20.7558 19.4903 20.6592 19.1827C20.334 18.2072 20.167 17.1614 20.167 16.0804C20.167 15.6058 19.7715 15.2104 19.297 15.2104H16.2562C15.7816 15.2104 15.2104 15.4213 15.2104 16.0804C15.2104 24.2448 22.0038 31.0295 30.1594 31.0295C30.7834 31.0295 31.0295 30.4758 31.0295 29.9924V26.9604C31.0295 26.4859 30.634 26.0904 30.1594 26.0904Z" fill="white"/>
</svg>
