<svg width="47" height="48" viewBox="0 0 47 48" fill="none" xmlns="http://www.w3.org/2000/svg">
<rect y="0.758423" width="46.8489" height="46.8489" rx="12.1685" fill="#FAFAFA"/>
<g clip-path="url(#clip0_24_674)">
<path d="M23.4245 34.9001C29.3049 34.9001 34.0719 30.1174 34.0719 24.2178C34.0719 18.3181 29.3049 13.5355 23.4245 13.5355C17.544 13.5355 12.777 18.3181 12.777 24.2178C12.777 30.1174 17.544 34.9001 23.4245 34.9001Z" fill="#C4D600"/>
<path fill-rule="evenodd" clip-rule="evenodd" d="M17.5964 24.1049C20.7003 22.7481 22.7701 21.8537 23.8057 21.4215C26.7626 20.1876 27.3771 19.9732 27.7775 19.9662C27.8656 19.9646 28.0626 19.9865 28.1901 20.0904C28.2978 20.1781 28.3275 20.2965 28.3417 20.3797C28.3558 20.4628 28.3735 20.6522 28.3595 20.8002C28.1992 22.4893 27.5059 26.5884 27.1532 28.4802C27.0039 29.2807 26.71 29.5491 26.4255 29.5754C25.8072 29.6325 25.3377 29.1654 24.7388 28.7716C23.8017 28.1553 23.2723 27.7716 22.3626 27.1702C21.3114 26.4752 21.9929 26.0932 22.592 25.4689C22.7487 25.3056 25.4731 22.8195 25.5258 22.5939C25.5324 22.5657 25.5385 22.4606 25.4763 22.4051C25.414 22.3496 25.3221 22.3686 25.2558 22.3837C25.1618 22.4051 23.6648 23.3978 20.7646 25.3619C20.3397 25.6546 19.9548 25.7972 19.61 25.7898C19.2298 25.7815 18.4985 25.5741 17.9549 25.3968C17.2881 25.1794 16.7581 25.0644 16.8043 24.6951C16.8283 24.5027 17.0923 24.306 17.5964 24.1049Z" fill="#FAFAFA"/>
</g>
<defs>
<clipPath id="clip0_24_674">
<rect width="21.2949" height="21.2949" fill="white" transform="translate(12.777 13.5355)"/>
</clipPath>
</defs>
</svg>
