<svg width="47" height="47" viewBox="0 0 47 47" fill="none" xmlns="http://www.w3.org/2000/svg">
<rect x="0.0336914" y="-1.52588e-05" width="46.8489" height="46.8489" rx="12.1685" fill="#FAFAFA"/>
<g clip-path="url(#clip0_24_670)">
<path d="M31.956 18.0782C31.9688 18.2635 31.9688 18.4489 31.9688 18.6359C31.9688 24.3355 27.6349 30.9088 19.7101 30.9088V30.9054C17.3691 30.9088 15.0767 30.2375 13.106 28.9716C13.4464 29.0126 13.7885 29.0331 14.1314 29.034C16.0715 29.0357 17.956 28.384 19.4823 27.184C17.6387 27.149 16.022 25.9455 15.4572 24.1886C16.103 24.3133 16.7685 24.2877 17.4023 24.1143C15.3924 23.7077 13.9463 21.9397 13.9463 19.8864C13.9463 19.8676 13.9463 19.8496 13.9463 19.8317C14.5452 20.1657 15.2158 20.351 15.9017 20.3715C14.0086 19.1049 13.425 16.5835 14.5682 14.6122C16.7557 17.3069 19.9831 18.9451 23.4477 19.1185C23.1004 17.6204 23.5748 16.0505 24.6941 14.9974C26.4294 13.3643 29.1586 13.448 30.7898 15.1844C31.7547 14.994 32.6794 14.6395 33.5258 14.1373C33.2041 15.1358 32.531 15.9839 31.6318 16.5229C32.4858 16.4221 33.3202 16.1932 34.1059 15.8438C33.5275 16.7116 32.7989 17.4675 31.956 18.0782Z" fill="#C4D600"/>
</g>
<defs>
<clipPath id="clip0_24_670">
<rect width="21.2949" height="21.2949" fill="white" transform="translate(12.8107 12.7769)"/>
</clipPath>
</defs>
</svg>
