<svg width="48" height="48" viewBox="0 0 48 48" fill="none" xmlns="http://www.w3.org/2000/svg">
<rect x="0.275421" y="0.758423" width="46.8489" height="46.8489" rx="12.1685" fill="#FAFAFA"/>
<g clip-path="url(#clip0_24_701)">
<path d="M13.0524 23.8501C13.0524 18.9876 13.0524 16.5566 14.563 15.046C16.0736 13.5354 18.5045 13.5354 23.3671 13.5354H24.0326C28.8951 13.5354 31.3261 13.5354 32.8367 15.046C34.3473 16.5566 34.3473 18.9876 34.3473 23.8501V24.5156C34.3473 29.3782 34.3473 31.8091 32.8367 33.3197C31.3261 34.8303 28.8951 34.8303 24.0326 34.8303H23.3671C18.5045 34.8303 16.0736 34.8303 14.563 33.3197C13.0524 31.8091 13.0524 29.3782 13.0524 24.5156V23.8501Z" fill="#C4D600"/>
<path d="M24.3797 28.7458C19.1828 28.7458 16.2186 25.32 16.0951 19.6194H18.6983C18.7838 23.8035 20.7029 25.5758 22.223 25.9412V19.6194H24.6743V23.2279C26.1754 23.0726 27.7524 21.4282 28.2844 19.6194H30.7356C30.3271 21.8485 28.617 23.4928 27.4009 24.1689C28.617 24.717 30.5647 26.1513 31.3058 28.7458H28.6075C28.028 27.0101 26.5839 25.6671 24.6743 25.4844V28.7458H24.3797Z" fill="#FAFAFA"/>
</g>
<defs>
<clipPath id="clip0_24_701">
<rect width="21.2949" height="21.2949" fill="white" transform="translate(13.0524 13.5354)"/>
</clipPath>
</defs>
</svg>
