<svg width="48" height="48" viewBox="0 0 48 48" fill="none" xmlns="http://www.w3.org/2000/svg">
<rect x="0.75827" y="0.758423" width="46.8489" height="46.8489" rx="12.1685" fill="#FAFAFA"/>
<g clip-path="url(#clip0_24_679)">
<path d="M34.9332 29.4263C34.9332 29.543 34.9295 29.7946 34.9223 29.9915C34.9041 30.4692 34.8678 31.0854 34.8096 31.3662C34.7224 31.7892 34.5952 32.1866 34.4243 32.5185C34.2245 32.9123 33.97 33.2623 33.6647 33.565C33.3631 33.8676 33.0142 34.1229 32.6216 34.3234C32.2909 34.4948 31.8911 34.6224 31.4659 34.7099C31.1896 34.7646 30.579 34.8048 30.1066 34.8193C29.9103 34.8266 29.6595 34.8303 29.5432 34.8303H19.0904C18.9741 34.8303 18.7233 34.8266 18.527 34.8193C18.0509 34.8011 17.4367 34.7646 17.1568 34.7063C16.7352 34.6188 16.3391 34.4912 16.0083 34.3198C15.6158 34.1192 15.2669 33.864 14.9652 33.5577C14.6635 33.255 14.4091 32.905 14.2092 32.5112C14.0384 32.1794 13.9112 31.7782 13.824 31.3516C13.7695 31.0745 13.7295 30.4619 13.7149 29.9879C13.7113 29.7946 13.7077 29.543 13.7077 29.4263V18.9393C13.7077 18.8226 13.7113 18.571 13.7186 18.3741C13.7367 17.8964 13.7731 17.2802 13.8312 16.9994C13.9185 16.5764 14.0457 16.179 14.2165 15.8472C14.4164 15.4533 14.6708 15.1033 14.9725 14.8006C15.2741 14.498 15.6231 14.2427 16.0156 14.0422C16.3463 13.8708 16.7461 13.7432 17.1714 13.6557C17.4476 13.601 18.0582 13.5609 18.5307 13.5463C18.7269 13.539 18.9777 13.5353 19.094 13.5353H29.5468C29.6631 13.5353 29.9139 13.539 30.1102 13.5463C30.5863 13.5645 31.2005 13.601 31.4804 13.6593C31.902 13.7468 32.2982 13.8745 32.6289 14.0458C33.0214 14.2464 33.3703 14.5016 33.672 14.8079C33.9737 15.1106 34.2281 15.4606 34.428 15.8544C34.5988 16.1863 34.726 16.5874 34.8132 17.014C34.8678 17.2911 34.9077 17.9037 34.9223 18.3778C34.9295 18.5747 34.9332 18.8263 34.9332 18.9429V29.4263Z" fill="#C4D600"/>
<path fill-rule="evenodd" clip-rule="evenodd" d="M29.9029 18.6328C28.4745 17.1998 26.5737 16.4085 24.5493 16.4085C20.3769 16.4085 16.9859 19.8143 16.9822 23.9967C16.9822 25.3349 17.3311 26.6403 17.9926 27.7889L16.9204 31.7234L20.9329 30.6696C22.0378 31.2749 23.2808 31.5921 24.5493 31.5921H24.5529C28.7217 31.5921 32.1163 28.1864 32.1199 24.004C32.1199 21.9729 31.3313 20.0659 29.9029 18.6328ZM24.5529 30.3086C23.4226 30.3086 22.314 30.0023 21.3509 29.4298L21.1219 29.2949L18.7413 29.9221L19.3774 27.5957L19.2284 27.3587C18.5996 26.3559 18.2652 25.1927 18.2652 24.0003C18.2652 20.5217 21.0892 17.6921 24.5565 17.6921C26.2357 17.6921 27.8167 18.3484 29.0015 19.5408C30.19 20.7332 30.8442 22.3193 30.8406 24.004C30.837 27.479 28.0166 30.3086 24.5529 30.3086ZM28.002 25.5865C27.8131 25.4917 26.8826 25.0323 26.7118 24.9703C26.5373 24.9083 26.4138 24.8755 26.2866 25.0651C26.1594 25.2547 25.7995 25.6813 25.6869 25.8089C25.5778 25.9366 25.4652 25.9511 25.2762 25.8563C25.0872 25.7615 24.4766 25.561 23.7569 24.9156C23.1936 24.4124 22.8156 23.7925 22.7066 23.6029C22.5975 23.4133 22.6957 23.3112 22.7902 23.2164C22.8738 23.1325 22.9792 22.9939 23.0737 22.8845C23.1682 22.7751 23.2009 22.6949 23.2627 22.5673C23.3244 22.4397 23.2954 22.3303 23.2481 22.2355C23.2009 22.1407 22.8229 21.2072 22.6666 20.828C22.5139 20.4597 22.3577 20.5071 22.2414 20.5034C22.1323 20.4961 22.0051 20.4961 21.8779 20.4961C21.7507 20.4961 21.5472 20.5435 21.3727 20.7332C21.1983 20.9228 20.7112 21.3822 20.7112 22.3157C20.7112 23.2492 21.3872 24.1498 21.4817 24.2775C21.5762 24.4051 22.8156 26.3194 24.7128 27.1399C25.1635 27.3368 25.516 27.4535 25.7923 27.541C26.2466 27.6868 26.6573 27.665 26.9844 27.6176C27.3478 27.5629 28.1038 27.1581 28.2601 26.7169C28.4164 26.2757 28.4164 25.8928 28.3691 25.8162C28.3146 25.7287 28.191 25.6813 28.002 25.5865Z" fill="#FAFAFA"/>
</g>
<defs>
<clipPath id="clip0_24_679">
<rect width="21.2949" height="21.2949" fill="white" transform="translate(13.5352 13.5354)"/>
</clipPath>
</defs>
</svg>
