<svg width="48" height="48" viewBox="0 0 48 48" fill="none" xmlns="http://www.w3.org/2000/svg">
<rect x="0.516571" y="0.758423" width="46.8489" height="46.8489" rx="12.1685" fill="#FAFAFA"/>
<g clip-path="url(#clip0_24_687)">
<path d="M34.5885 29.4264C34.5885 29.5431 34.5848 29.7947 34.5775 29.9916C34.5593 30.4693 34.5228 31.0855 34.4645 31.3663C34.377 31.7892 34.2493 32.1867 34.078 32.5185C33.8774 32.9123 33.6222 33.2624 33.3159 33.565C33.0132 33.8677 32.6632 34.1229 32.2694 34.3235C31.9375 34.4949 31.5364 34.6225 31.1098 34.71C30.8327 34.7647 30.2201 34.8048 29.746 34.8194C29.5491 34.8267 29.2975 34.8303 29.1809 34.8303H18.6938C18.5771 34.8303 18.3255 34.8267 18.1286 34.8194C17.651 34.8012 17.0347 34.7647 16.7539 34.7064C16.331 34.6188 15.9335 34.4912 15.6017 34.3198C15.2079 34.1193 14.8578 33.864 14.5552 33.5577C14.2525 33.2551 13.9973 32.905 13.7967 32.5112C13.6253 32.1794 13.4977 31.7783 13.4102 31.3517C13.3555 31.0746 13.3154 30.462 13.3008 29.9879C13.2972 29.7947 13.2935 29.5431 13.2935 29.4264V18.9394C13.2935 18.8227 13.2972 18.5711 13.3045 18.3742C13.3227 17.8965 13.3592 17.2802 13.4175 16.9995C13.505 16.5765 13.6326 16.179 13.804 15.8472C14.0046 15.4534 14.2598 15.1033 14.5625 14.8007C14.8651 14.498 15.2152 14.2428 15.609 14.0422C15.9408 13.8709 16.3419 13.7432 16.7685 13.6557C17.0457 13.601 17.6583 13.5609 18.1323 13.5463C18.3292 13.539 18.5808 13.5354 18.6975 13.5354H29.1845C29.3012 13.5354 29.5528 13.539 29.7497 13.5463C30.2274 13.5646 30.8436 13.601 31.1244 13.6594C31.5474 13.7469 31.9448 13.8745 32.2766 14.0459C32.6705 14.2464 33.0205 14.5017 33.3232 14.808C33.6258 15.1106 33.8811 15.4607 34.0816 15.8545C34.253 16.1863 34.3806 16.5874 34.4681 17.0141C34.5228 17.2912 34.5629 17.9038 34.5775 18.3778C34.5848 18.5747 34.5885 18.8263 34.5885 18.943V29.4264Z" fill="#C4D600"/>
<g clip-path="url(#clip1_24_687)">
<path d="M30.0872 18.1433C29.6755 17.7635 28.0115 16.5561 24.3051 16.5397C24.3051 16.5397 19.9344 16.2762 17.8037 18.2298C16.6177 19.4156 16.2004 21.1507 16.1564 23.3018C16.1124 25.453 16.0555 29.4844 19.9431 30.5775H19.9468L19.9443 32.2455C19.9443 32.2455 19.9195 32.9207 20.3643 33.0584C20.9024 33.2255 21.2182 32.7122 21.7319 32.159C22.0138 31.8552 22.4032 31.4091 22.6966 31.0681C25.3554 31.2918 27.4003 30.7805 27.6326 30.705C28.1694 30.531 31.2071 30.142 31.7012 26.1109C32.2112 21.9559 31.4545 19.3278 30.0872 18.1433Z" fill="#FAFAFA"/>
<path d="M29.2235 18.9824C28.8753 18.6663 27.3728 17.7226 24.2376 17.7089C24.2376 17.7089 20.525 17.4651 18.7228 19.0968C17.7197 20.0867 17.3818 21.5589 17.3448 23.3553C17.3077 25.1518 17.1158 28.5837 20.4031 29.4966C20.4031 29.4966 20.3902 32.0445 20.3887 32.2684C20.3887 32.425 20.4136 32.5321 20.5031 32.5542C20.5675 32.5699 20.664 32.5366 20.746 32.4548C21.2717 31.9271 22.9545 29.8978 22.9545 29.8978C25.2125 30.0452 27.009 29.5995 27.2022 29.5364C27.6577 29.39 30.1216 29.1785 30.5386 25.8117C30.9695 22.3413 30.3802 19.9724 29.2235 18.9824Z" fill="#C4D600"/>
<path d="M25.8316 23.2078C25.7908 22.3861 25.3732 21.9545 24.5789 21.9131" stroke="#FAFAFA" stroke-width="0.482429" stroke-linecap="round" stroke-linejoin="round"/>
<path d="M26.9066 23.5682C26.9232 22.8027 26.6964 22.1631 26.2261 21.6495C25.7537 21.134 25.0997 20.8501 24.2605 20.7888" stroke="#FAFAFA" stroke-width="0.482429" stroke-linecap="round" stroke-linejoin="round"/>
<path d="M28.007 23.9984C27.9969 22.67 27.5998 21.6238 26.8157 20.8598C26.0317 20.0958 25.0565 19.7097 23.8904 19.7016" stroke="#FAFAFA" stroke-width="0.482429" stroke-linecap="round" stroke-linejoin="round"/>
<path d="M24.6202 26.014C24.6202 26.014 24.9148 26.0389 25.0735 25.8435L25.3828 25.4545C25.532 25.2617 25.892 25.1386 26.2446 25.335C26.5088 25.4856 26.7653 25.6494 27.0132 25.8256C27.2472 25.9976 27.7263 26.3973 27.7278 26.3973C27.9561 26.5899 28.0088 26.8727 27.8534 27.171C27.8534 27.1727 27.8521 27.1757 27.8521 27.1772C27.681 27.4738 27.4637 27.7413 27.2084 27.9696C27.2054 27.9711 27.2054 27.9726 27.2027 27.974C26.9809 28.1593 26.763 28.2646 26.549 28.2899C26.5174 28.2955 26.4854 28.2975 26.4535 28.2959C26.3591 28.2968 26.2652 28.2824 26.1755 28.2532L26.1685 28.243C25.8388 28.15 25.2883 27.9174 24.3715 27.4118C23.841 27.1227 23.336 26.7892 22.8617 26.4149C22.6241 26.2274 22.3973 26.0264 22.1827 25.8129L22.1598 25.7901L22.1369 25.7672L22.1141 25.7444C22.1064 25.7369 22.0989 25.7292 22.0912 25.7215C21.8776 25.5069 21.6765 25.2803 21.489 25.0427C21.1145 24.5687 20.7809 24.064 20.4916 23.5338C19.9859 22.6172 19.7531 22.0674 19.6601 21.7373L19.65 21.7304C19.6208 21.6406 19.6064 21.5468 19.6074 21.4525C19.6057 21.4206 19.6076 21.3885 19.6132 21.357C19.6398 21.1435 19.7453 20.9255 19.9297 20.7031C19.9312 20.7004 19.9327 20.7004 19.9342 20.6974C20.1625 20.4422 20.4301 20.2251 20.7268 20.0542C20.7283 20.0542 20.7313 20.0527 20.7331 20.0527C21.0314 19.8973 21.3144 19.95 21.5069 20.1769C21.5084 20.1784 21.9074 20.6574 22.0788 20.8913C22.2551 21.1392 22.4189 21.3959 22.5696 21.6603C22.766 22.0125 22.6429 22.3731 22.45 22.5217L22.0608 22.8309C21.8644 22.9895 21.8903 23.284 21.8903 23.284C21.8903 23.284 22.4666 25.4645 24.6202 26.014Z" fill="#FAFAFA"/>
</g>
</g>
<defs>
<clipPath id="clip0_24_687">
<rect width="21.2949" height="21.2949" fill="white" transform="translate(13.2935 13.5354)"/>
</clipPath>
<clipPath id="clip1_24_687">
<rect width="17.537" height="17.537" fill="white" transform="translate(15.1725 16.0406)"/>
</clipPath>
</defs>
</svg>
