<svg width="47" height="48" viewBox="0 0 47 48" fill="none" xmlns="http://www.w3.org/2000/svg">
<rect x="0.0900879" y="0.576874" width="46.8489" height="46.8489" rx="12.1685" fill="#FAFAFA"/>
<g clip-path="url(#clip0_24_582)">
<g clip-path="url(#clip1_24_582)">
<path d="M33.7231 18.9489C33.4777 18.0366 32.7584 17.3175 31.8463 17.0719C30.1799 16.6158 23.5142 16.6158 23.5142 16.6158C23.5142 16.6158 16.8487 16.6158 15.1823 17.0545C14.2877 17.3 13.5509 18.0368 13.3055 18.9489C12.867 20.6151 12.867 24.0708 12.867 24.0708C12.867 24.0708 12.867 27.5439 13.3055 29.1927C13.5511 30.1048 14.2702 30.8241 15.1824 31.0697C16.8662 31.5258 23.5144 31.5258 23.5144 31.5258C23.5144 31.5258 30.1799 31.5258 31.8463 31.0871C32.7586 30.8416 33.4777 30.1224 33.7233 29.2103C34.1618 27.5439 34.1618 24.0883 34.1618 24.0883C34.1618 24.0883 34.1794 20.6151 33.7231 18.9489Z" fill="#C4D600"/>
<path d="M21.3919 27.2631L26.9348 24.0706L21.3919 20.8781V27.2631Z" fill="#FAFAFA"/>
</g>
</g>
<defs>
<clipPath id="clip0_24_582">
<rect width="21.2949" height="21.2949" fill="white" transform="translate(12.8671 13.3539)"/>
</clipPath>
<clipPath id="clip1_24_582">
<rect width="21.2949" height="21.2949" fill="white" transform="translate(12.867 13.658)"/>
</clipPath>
</defs>
</svg>
